<svg width="150" height="120" viewBox="0 0 150 120" fill="none" xmlns="http://www.w3.org/2000/svg">
<path d="M133 2H17C8.99187 2 2.5 8.49187 2.5 16.5V103.5C2.5 111.508 8.99187 118 17 118H133C141.008 118 147.5 111.508 147.5 103.5V16.5C147.5 8.49187 141.008 2 133 2Z" fill="#6E7547" stroke="#FCF8F0" stroke-width="4" stroke-linecap="round" stroke-linejoin="round"/>
<path d="M147.5 23.75L82.4675 65.075C80.2292 66.4773 77.6413 67.2211 75 67.2211C72.3587 67.2211 69.7708 66.4773 67.5325 65.075L2.5 23.75" fill="#6E7547"/>
<path d="M147.5 23.75L82.4675 65.075C80.2292 66.4773 77.6413 67.2211 75 67.2211C72.3587 67.2211 69.7708 66.4773 67.5325 65.075L2.5 23.75" stroke="#FCF8F0" stroke-width="4" stroke-linecap="round" stroke-linejoin="round"/>
</svg>
