<svg width="146" height="132" viewBox="0 0 146 132" fill="none" xmlns="http://www.w3.org/2000/svg">
<path d="M7.75 131.25C29.5 131.25 58.5 124 58.5 73.25V15.2501C58.5 6.18755 53.019 0.626804 44 0.750054H15C5.9375 0.750054 0.5 6.18755 0.5 15.0471V58.75C0.5 67.8125 5.9375 73.25 15 73.25C22.25 73.25 22.25 73.25 22.25 80.5V87.75C22.25 95 15 102.25 7.75 102.25C0.5 102.25 0.5 102.308 0.5 109.725V124C0.5 131.25 0.5 131.25 7.75 131.25Z" fill="#6E7547"/>
<path d="M94.75 131.25C116.5 131.25 145.5 124 145.5 73.25V15.2501C145.5 6.18755 140.012 0.626804 131 0.750054H102C92.9375 0.750054 87.5 6.18755 87.5 15.0471V58.75C87.5 67.8125 92.9375 73.25 102 73.25H107.438C107.438 89.5625 109.25 102.25 87.5 102.25V124C87.5 131.25 87.5 131.25 94.75 131.25Z" fill="#6E7547"/>
</svg>
